M48
; DRILL file {KiCad (7.0.0)} date Sat Feb 25 19:44:34 2023
; FORMAT={3:3/ absolute / metric / keep zeros}
; #@! TF.CreationDate,2023-02-25T19:44:34+08:00
; #@! TF.GenerationSoftware,Kicad,Pcbnew,(7.0.0)
; #@! TF.FileFunction,MixedPlating,1,2
FMAT,2
METRIC
; #@! TA.AperFunction,Plated,PTH,ViaDrill
T1C0.400
; #@! TA.AperFunction,Plated,PTH,ComponentDrill
T2C0.500
; #@! TA.AperFunction,Plated,PTH,ComponentDrill
T3C0.600
; #@! TA.AperFunction,Plated,PTH,ComponentDrill
T4C1.000
%
G90
G05
T1
X005110Y007090
X005820Y006380
X010030Y014500
X010400Y013190
X011540Y019130
X011690Y004940
X013130Y021350
X014500Y013310
X015750Y033000
X017265Y019055
X017265Y012945
X020750Y021250
X020785Y010965
X022500Y033000
X023590Y043310
X025645Y014625
X025720Y004400
X025880Y024680
X026000Y042750
X026000Y041250
X028750Y013250
X029000Y003500
X029030Y045960
X031020Y032890
X032250Y029750
X032495Y026465
X034750Y036115
X037320Y022920
X038510Y022900
X043615Y027805
T2
X003000Y010650
X003000Y009450
X003000Y008250
X003000Y007050
X003000Y005850
X003000Y004650
T4
X003575Y044895
X006115Y044895
X008655Y044895
X011195Y044895
X013735Y044895
X016275Y044895
X038085Y016550
X038085Y014010
X038085Y011470
X038085Y008930
X038085Y006390
X038085Y003850
X043165Y016550
X043165Y014010
X043165Y011470
X043165Y008930
X043165Y006390
X043165Y003850
X045985Y044740
X045985Y042200
X045985Y039660
X045985Y037120
X045985Y034580
X045985Y032040
T3
G00X003100Y011980
M15
G01X003900Y011980
M16
G05
G00X003100Y003320
M15
G01X003900Y003320
M16
G05
T0
M30
